<svg width="109" height="109" viewBox="0 0 109 109" fill="none" xmlns="http://www.w3.org/2000/svg">
<path d="M103.5 54.8888C103.5 82.0426 81.4874 104.056 54.3337 104.056C27.1796 104.056 5.16699 82.0426 5.16699 54.8888C5.16699 27.7348 27.1796 5.72217 54.3337 5.72217C81.4874 5.72217 103.5 27.7348 103.5 54.8888Z" stroke="#24786D" stroke-width="8.5"/>
<path d="M67.8551 42.5972C67.8551 50.0647 61.8017 56.1181 54.3343 56.1181C46.8669 56.1181 40.8135 50.0647 40.8135 42.5972C40.8135 35.1299 46.8669 29.0764 54.3343 29.0764C61.8017 29.0764 67.8551 35.1299 67.8551 42.5972Z" stroke="#24786D" stroke-width="8.5"/>
<path d="M22.376 89.306L25.1313 84.4842C29.5081 76.825 37.6537 72.0977 46.4758 72.0977H62.1929C71.0149 72.0977 79.1603 76.825 83.5371 84.4842L86.2924 89.306" stroke="#24786D" stroke-width="8.5" stroke-linecap="round" stroke-linejoin="round"/>
</svg>
